<?xml version="1.0" encoding="utf-8"?>
<svg width="100px" height="100px" viewBox="0 0 100 100" xmlns="http://www.w3.org/2000/svg">
  <rect x="0" y="0" width="100" height="100" style="stroke: rgb(0, 0, 0); fill-opacity: 0.5; fill: rgb(138, 157, 212);"/>
  <g transform="matrix(0.358906, 0, 0, 0.464318, 6.749052, 22.808029)" style="">
    <rect width="4" height="100" transform="matrix(0.999993, 0.003661, -0.402138, 0.998534, 28.475889, -0.040479)" style="fill: rgb(212, 32, 32);"/>
    <rect x="6" width="2" height="100" transform="matrix(0.999993, 0.003661, -0.402138, 0.998534, 28.475889, -0.040479)" style="fill: rgb(212, 32, 32);"/>
    <rect x="12" width="2" height="100" transform="matrix(0.999993, 0.003661, -0.402138, 0.998534, 28.475889, -0.040479)" style="fill: rgb(212, 32, 32);"/>
    <rect x="22" width="4" height="100" transform="matrix(0.999993, 0.003661, -0.402138, 0.998534, 28.475889, -0.040479)" style="fill: rgb(212, 32, 32);"/>
    <rect x="32" width="2" height="100" transform="matrix(0.999993, 0.003661, -0.402138, 0.998534, 28.475889, -0.040479)" style="fill: rgb(212, 32, 32);"/>
    <rect x="36" width="6" height="100" transform="matrix(0.999993, 0.003661, -0.402138, 0.998534, 28.475889, -0.040479)" style="fill: rgb(212, 32, 32);"/>
    <rect x="44" width="2" height="100" transform="matrix(0.999993, 0.003661, -0.402138, 0.998534, 28.475889, -0.040479)" style="fill: rgb(212, 32, 32);"/>
    <rect x="50" width="2" height="100" transform="matrix(0.999993, 0.003661, -0.402138, 0.998534, 28.475889, -0.040479)" style="fill: rgb(212, 32, 32);"/>
    <rect x="54" width="4" height="100" transform="matrix(0.999993, 0.003661, -0.402138, 0.998534, 28.475889, -0.040479)" style="fill: rgb(212, 32, 32);"/>
    <rect x="66" width="2" height="100" transform="matrix(0.999993, 0.003661, -0.402138, 0.998534, 28.475889, -0.040479)" style="fill: rgb(212, 32, 32);"/>
    <rect x="72" width="2" height="100" transform="matrix(0.999993, 0.003661, -0.402138, 0.998534, 28.475889, -0.040479)" style="fill: rgb(212, 32, 32);"/>
    <rect x="82" width="4" height="100" transform="matrix(0.999993, 0.003661, -0.402138, 0.998534, 28.475889, -0.040479)" style="fill: rgb(212, 32, 32);"/>
    <rect x="88" width="2" height="100" transform="matrix(0.999993, 0.003661, -0.402138, 0.998534, 28.475889, -0.040479)" style="fill: rgb(212, 32, 32);"/>
    <rect x="92" width="4" height="100" transform="matrix(0.999993, 0.003661, -0.402138, 0.998534, 28.475889, -0.040479)" style="fill: rgb(212, 32, 32);"/>
    <rect x="100" width="2" height="100" transform="matrix(0.999993, 0.003661, -0.402138, 0.998534, 28.475889, -0.040479)" style="fill: rgb(212, 32, 32);"/>
    <rect x="110" width="2" height="100" transform="matrix(0.999993, 0.003661, -0.402138, 0.998534, 28.475889, -0.040479)" style="fill: rgb(212, 32, 32);"/>
    <rect x="116" width="2" height="100" transform="matrix(0.999993, 0.003661, -0.402138, 0.998534, 28.475889, -0.040479)" style="fill: rgb(212, 32, 32);"/>
    <rect x="122" width="8" height="100" transform="matrix(0.999993, 0.003661, -0.402138, 0.998534, 28.475889, -0.040479)" style="fill: rgb(212, 32, 32);"/>
    <rect x="132" width="2" height="100" transform="matrix(0.999993, 0.003661, -0.402138, 0.998534, 28.475889, -0.040479)" style="fill: rgb(212, 32, 32);"/>
    <rect x="142" width="4" height="100" transform="matrix(0.999993, 0.003661, -0.402138, 0.998534, 28.475889, -0.040479)" style="fill: rgb(212, 32, 32);"/>
    <rect x="148" width="2" height="100" transform="matrix(0.999993, 0.003661, -0.402138, 0.998534, 28.475889, -0.040479)" style="fill: rgb(212, 32, 32);"/>
    <rect x="154" width="8" height="100" transform="matrix(0.999993, 0.003661, -0.402138, 0.998534, 28.475889, -0.040479)" style="fill: rgb(212, 32, 32);"/>
    <rect x="166" width="2" height="100" transform="matrix(0.999993, 0.003661, -0.402138, 0.998534, 28.475889, -0.040479)" style="fill: rgb(212, 32, 32);"/>
    <rect x="172" width="2" height="100" transform="matrix(0.999993, 0.003661, -0.402138, 0.998534, 28.475889, -0.040479)" style="fill: rgb(212, 32, 32);"/>
    <rect x="176" width="6" height="100" transform="matrix(0.999993, 0.003661, -0.402138, 0.998534, 28.475889, -0.040479)" style="fill: rgb(212, 32, 32);"/>
    <rect x="188" width="4" height="100" transform="matrix(0.999993, 0.003661, -0.402138, 0.998534, 28.475889, -0.040479)" style="fill: rgb(212, 32, 32);"/>
    <rect x="194" width="2" height="100" transform="matrix(0.999993, 0.003661, -0.402138, 0.998534, 28.475889, -0.040479)" style="fill: rgb(212, 32, 32);"/>
    <rect x="198" width="4" height="100" transform="matrix(0.999993, 0.003661, -0.402138, 0.998534, 28.475889, -0.040479)" style="fill: rgb(212, 32, 32);"/>
    <rect x="208" width="6" height="100" transform="matrix(0.999993, 0.003661, -0.402138, 0.998534, 28.475889, -0.040479)" style="fill: rgb(212, 32, 32);"/>
    <rect x="216" width="2" height="100" transform="matrix(0.999993, 0.003661, -0.402138, 0.998534, 28.475889, -0.040479)" style="fill: rgb(212, 32, 32);"/>
    <rect x="220" width="4" height="100" transform="matrix(0.999993, 0.003661, -0.402138, 0.998534, 28.475889, -0.040479)" style="fill: rgb(212, 32, 32);"/>
    <text style="fill: rgb(212, 32, 32); font-family: monospace; font-size: 20px; line-height: normal; text-anchor: middle;" transform="matrix(0.999994, 0.003661, -0.402138, 0.998535, 37.25264, -0.794279)" x="112" y="122">Raberix</text>
  </g>
</svg>